HIERARCHY
ROOT Hips
{
	OFFSET 0.0000 0.0000 0.0000
	CHANNELS 6 Xposition Yposition Zposition Yrotation Xrotation Zrotation
	JOINT Spine
	{
		OFFSET 0.0000 10.0000 0.0000
		CHANNELS 3 Yrotation Xrotation Zrotation
		JOINT Chest
		{
			OFFSET 0.0000 15.0000 0.0000
			CHANNELS 3 Yrotation Xrotation Zrotation
			JOINT Neck
			{
				OFFSET 0.0000 22.0000 0.0000
				CHANNELS 3 Yrotation Xrotation Zrotation
				JOINT Head
				{
					OFFSET 0.0000 10.0000 0.0000
					CHANNELS 3 Yrotation Xrotation Zrotation
					End Site
					{
						OFFSET 0.0000 18.0000 0.0000
					}
				}
			}
			JOINT LeftShoulder
			{
				OFFSET 3.0000 18.0000 0.0000
				CHANNELS 3 Yrotation Xrotation Zrotation
				JOINT LeftArm
				{
					OFFSET 13.0000 0.0000 0.0000
					CHANNELS 3 Yrotation Xrotation Zrotation
					JOINT LeftForeArm
					{
						OFFSET 29.0000 0.0000 0.0000
						CHANNELS 3 Yrotation Xrotation Zrotation
						JOINT LeftHand
						{
							OFFSET 26.0000 0.0000 0.0000
							CHANNELS 3 Yrotation Xrotation Zrotation
							End Site
							{
								OFFSET 17.0000 0.0000 0.0000
							}
						}
					}
				}
			}
			JOINT RightShoulder
			{
				OFFSET -3.0000 18.0000 0.0000
				CHANNELS 3 Yrotation Xrotation Zrotation
				JOINT RightArm
				{
					OFFSET -13.0000 0.0000 0.0000
					CHANNELS 3 Yrotation Xrotation Zrotation
					JOINT RightForeArm
					{
						OFFSET -29.0000 0.0000 0.0000
						CHANNELS 3 Yrotation Xrotation Zrotation
						JOINT RightHand
						{
							OFFSET -26.0000 0.0000 0.0000
							CHANNELS 3 Yrotation Xrotation Zrotation
							End Site
							{
								OFFSET -17.0000 0.0000 0.0000
							}
						}
					}
				}
			}
		}
	}
	JOINT LeftUpLeg
	{
		OFFSET 9.0000 -3.0000 0.0000
		CHANNELS 3 Yrotation Xrotation Zrotation
		JOINT LeftLeg
		{
			OFFSET 0.0000 -42.0000 0.0000
			CHANNELS 3 Yrotation Xrotation Zrotation
			JOINT LeftFoot
			{
				OFFSET 0.0000 -42.0000 0.0000
				CHANNELS 3 Yrotation Xrotation Zrotation
				JOINT LeftToeBase
				{
					OFFSET 0.0000 -7.0000 13.0000
					CHANNELS 3 Yrotation Xrotation Zrotation
					End Site
					{
						OFFSET 0.0000 0.0000 7.0000
					}
				}
			}
		}
	}
	JOINT RightUpLeg
	{
		OFFSET -9.0000 -3.0000 0.0000
		CHANNELS 3 Yrotation Xrotation Zrotation
		JOINT RightLeg
		{
			OFFSET 0.0000 -42.0000 0.0000
			CHANNELS 3 Yrotation Xrotation Zrotation
			JOINT RightFoot
			{
				OFFSET 0.0000 -42.0000 0.0000
				CHANNELS 3 Yrotation Xrotation Zrotation
				JOINT RightToeBase
				{
					OFFSET 0.0000 -7.0000 13.0000
					CHANNELS 3 Yrotation Xrotation Zrotation
					End Site
					{
						OFFSET 0.0000 0.0000 7.0000
					}
				}
			}
		}
	}
}
MOTION
Frames: 14
Frame Time: 0.0333333
44.3717 85.4074 860.1418 66.5556 5.7778 -7.4800 0.8667 5.7490 0.0000 7.9052 5.1660 0.0000 5.9360 -5.7490 0.0000 5.9360 -3.1662 0.0000 0.0000 0.0000 0.0000 0.0000 9.6296 -60.9128 -71.9679 0.0000 0.0000 0.0000 0.0000 0.0000 0.0000 0.0000 0.0000 0.0000 -11.6296 60.9128 71.9679 0.0000 0.0000 0.0000 0.0000 0.0000 -2.0603 -24.4853 4.9607 0.0000 53.2714 0.0000 9.8879 -34.5113 -2.6588 0.0000 -0.0000 0.0000 -28.4645 -52.9647 34.1830 0.0000 96.3949 0.0000 -11.1266 -41.9422 -4.3832 0.0000 -3.1333 0.0000
47.3388 86.5405 861.1366 69.2597 5.5658 -7.1230 0.4943 5.5833 0.0000 7.0673 5.0555 0.0000 5.4373 -5.5833 0.0000 5.4373 -3.0370 0.0000 0.0000 0.0000 0.0000 0.0000 5.4920 -61.0991 -72.1439 0.0000 0.0000 0.0000 0.0000 0.0000 0.0000 0.0000 0.0000 0.0000 -7.4920 61.0991 72.1439 0.0000 0.0000 0.0000 0.0000 0.0000 -1.6064 -19.7032 4.7549 0.0000 48.1712 0.0000 6.6158 -34.0519 -1.0692 0.0000 -0.0000 0.0000 -23.5227 -51.2852 29.1556 0.0000 94.3354 0.0000 -7.8742 -47.2876 -4.9607 0.0000 -0.0000 0.0000
50.3605 87.5583 862.1556 71.9651 5.3786 -6.7037 0.1000 5.4167 0.0000 6.2202 4.9445 0.0000 5.1147 -5.4167 0.0000 5.1147 -2.9124 0.0000 0.0000 0.0000 0.0000 0.0000 1.1106 -61.2963 -72.3216 0.0000 0.0000 0.0000 0.0000 0.0000 0.0000 0.0000 0.0000 0.0000 -3.1106 61.2963 72.3216 0.0000 0.0000 0.0000 0.0000 0.0000 -1.2048 -14.7332 4.7271 0.0000 42.5682 0.0000 3.3875 -33.2023 0.2678 0.0000 -0.0235 0.0000 -18.1628 -48.4481 23.6718 0.0000 88.6112 0.0000 -4.1152 -49.5804 -5.9118 0.0000 -0.0000 0.0000
53.4444 88.0000 863.2376 74.6249 5.2222 -6.2400 -0.2988 5.2510 0.0000 5.4025 4.8340 0.0000 5.0000 -5.2510 0.0000 5.0000 -2.7930 0.0000 0.0000 0.0000 0.0000 0.0000 -3.3196 -61.5026 -72.5000 0.0000 0.0000 0.0000 0.0000 0.0000 0.0000 0.0000 0.0000 0.0000 1.3196 61.5026 72.5000 0.0000 0.0000 0.0000 0.0000 0.0000 -1.1379 -13.2983 4.9352 0.0000 43.4673 0.0000 0.4415 -29.7188 1.1817 0.0000 -5.0701 0.0000 -14.7244 -47.5649 19.5996 0.0000 81.9179 0.0000 -0.9023 -46.0447 -6.3201 0.0000 -0.0000 0.0000
56.5940 87.8800 864.4185 77.1923 5.1029 -5.7496 -0.6843 5.0881 0.0000 4.5549 4.7254 0.0000 4.9363 -5.0881 0.0000 4.9363 -2.6794 0.0000 0.0000 0.0000 0.0000 0.0000 -7.6035 -61.7165 -72.6784 0.0000 0.0000 0.0000 0.0000 0.0000 0.0000 0.0000 0.0000 0.0000 5.6035 61.7165 72.6784 0.0000 0.0000 0.0000 0.0000 0.0000 -1.3755 -14.8363 5.3572 0.0000 49.5213 0.0000 -2.1808 -23.6249 2.0423 0.0000 -14.4489 0.0000 -11.9089 -47.8070 15.8892 0.0000 74.7698 0.0000 1.1411 -38.3288 -5.4591 0.0000 -0.0000 0.0000
59.7861 87.5583 865.7127 79.6202 5.0267 -5.2504 -1.0391 4.9297 0.0000 3.6302 4.6198 0.0000 4.7570 -4.9297 0.0000 4.7570 -2.5723 0.0000 0.0000 0.0000 0.0000 0.0000 -11.5460 -61.9362 -72.8561 0.0000 0.0000 0.0000 0.0000 0.0000 0.0000 0.0000 0.0000 0.0000 9.5460 61.9362 72.8561 0.0000 0.0000 0.0000 0.0000 0.0000 -1.5598 -15.1465 5.9497 0.0000 53.1645 0.0000 -4.6257 -18.7973 2.9156 0.0000 -21.6697 0.0000 -8.8419 -47.4915 11.9155 0.0000 65.9943 0.0000 2.4235 -28.7267 -3.7197 0.0000 -0.0000 0.0000
62.9227 87.0926 867.0191 81.8618 5.0000 -4.7600 -1.3457 4.7778 0.0000 2.6846 4.5185 0.0000 4.4800 -4.7778 0.0000 4.4800 -2.4723 0.0000 0.0000 0.0000 0.0000 0.0000 -14.9520 -62.1600 -73.0321 0.0000 0.0000 0.0000 0.0000 0.0000 0.0000 0.0000 0.0000 0.0000 12.9520 62.1600 73.0321 0.0000 0.0000 0.0000 0.0000 0.0000 -1.6161 -13.8193 6.7365 0.0000 53.6405 0.0000 -7.2441 -20.1811 3.6522 0.0000 -21.9929 0.0000 -5.7275 -46.0437 7.9318 0.0000 55.9801 0.0000 3.2141 -18.6012 -1.5494 0.0000 -0.0000 0.0000
66.0708 86.5405 868.3042 83.8703 4.9949 -4.2963 -1.5864 4.6340 0.0000 1.7748 4.4227 0.0000 4.1230 -4.6340 0.0000 4.1230 -2.3801 0.0000 0.0000 0.0000 0.0000 0.0000 -17.6264 -62.3864 -73.2056 0.0000 0.0000 0.0000 0.0000 0.0000 0.0000 0.0000 0.0000 0.0000 15.6264 62.3864 73.2056 0.0000 0.0000 0.0000 0.0000 0.0000 -2.4224 -18.0088 7.7915 0.0000 60.0387 0.0000 -9.7842 -25.2548 4.3500 0.0000 -19.3578 0.0000 -3.1194 -43.4923 4.5273 0.0000 46.1309 0.0000 3.6238 -9.6675 0.5325 0.0000 -0.0000 0.0000
69.3185 85.9595 869.5518 85.5986 4.9803 -3.8770 -1.7437 4.5004 0.0000 0.9571 4.3336 0.0000 3.7037 -4.5004 0.0000 3.7037 -2.2963 0.0000 0.0000 0.0000 0.0000 0.0000 -19.3741 -62.6136 -73.3760 0.0000 0.0000 0.0000 0.0000 0.0000 0.0000 0.0000 0.0000 0.0000 17.3741 62.6136 73.3760 0.0000 0.0000 0.0000 0.0000 0.0000 -4.0158 -26.3120 8.9999 0.0000 69.9229 0.0000 -11.9739 -31.0740 5.0096 0.0000 -15.4282 0.0000 -1.4851 -40.9890 2.2635 0.0000 39.6861 0.0000 3.5612 -4.3787 1.9293 0.0000 -0.0000 0.0000
72.7502 85.4074 870.7463 87.0000 4.9570 -3.5200 -1.8000 4.3786 0.0000 0.2880 4.2524 0.0000 3.2400 -4.3786 0.0000 3.2400 -2.2216 0.0000 0.0000 0.0000 0.0000 0.0000 -20.0000 -62.8400 -73.5423 0.0000 0.0000 0.0000 0.0000 0.0000 0.0000 0.0000 0.0000 0.0000 18.0000 62.8400 73.5423 0.0000 0.0000 0.0000 0.0000 0.0000 -6.2817 -36.7122 10.4335 0.0000 80.0352 0.0000 -13.3772 -35.2161 5.2508 0.0000 -11.2919 0.0000 -0.9760 -40.3189 1.5081 0.0000 41.0975 0.0000 2.8073 -5.8384 2.0783 0.0000 -0.0000 0.0000
76.4483 84.9417 871.8725 88.0668 4.9259 -3.2430 -1.7541 4.2705 0.0000 -0.2087 4.1804 0.0000 2.7496 -4.2705 0.0000 2.7496 -2.1566 0.0000 0.0000 0.0000 0.0000 0.0000 -19.5413 -63.0638 -73.7037 0.0000 0.0000 0.0000 0.0000 0.0000 0.0000 0.0000 0.0000 0.0000 17.5668 63.0638 73.7037 0.0000 0.0000 0.0000 0.0000 0.0000 -9.1765 -47.6991 12.3207 0.0000 88.5929 0.0000 -13.6325 -36.2397 4.7562 0.0000 -8.0368 0.0000 -1.1393 -40.1805 1.7654 0.0000 46.3722 0.0000 1.8036 -11.1598 1.5389 0.0000 -0.0000 0.0000
80.4965 84.6200 872.9160 88.8456 4.8879 -3.0637 -1.6251 4.1780 0.0000 -0.5497 4.1187 0.0000 2.2504 -4.1780 0.0000 2.2504 -2.1019 0.0000 0.0000 0.0000 0.0000 0.0000 -18.2507 -63.2835 -73.8595 0.0000 0.0000 0.0000 0.0000 0.0000 0.0000 0.0000 0.0000 0.0000 16.3479 63.2835 73.8595 0.0000 0.0000 0.0000 0.0000 0.0000 -12.7989 -57.9187 15.0090 0.0000 95.0896 0.0000 -12.8902 -33.7692 3.7245 0.0000 -6.7495 0.0000 -1.4107 -38.9801 2.2419 0.0000 50.1723 0.0000 1.0839 -16.0811 1.0163 0.0000 -0.0000 0.0000
84.9795 84.5000 873.8627 89.3707 4.8438 -3.0000 -1.4256 4.1029 0.0000 -0.7392 4.0686 0.0000 1.7600 -4.1029 0.0000 1.7600 -2.0583 0.0000 0.0000 0.0000 0.0000 0.0000 -16.2560 -63.4974 -74.0087 0.0000 0.0000 0.0000 0.0000 0.0000 0.0000 0.0000 0.0000 0.0000 14.4640 63.4974 74.0087 0.0000 0.0000 0.0000 0.0000 0.0000 -16.4726 -64.9864 18.0714 0.0000 99.0416 0.0000 -11.8693 -31.8211 2.8017 0.0000 -5.5220 0.0000 -1.7060 -36.6357 2.8574 0.0000 52.4653 0.0000 0.6086 -20.6456 0.4903 0.0000 -0.0000 0.0000
89.8684 84.9417 874.7106 89.6763 4.7944 -2.9410 -1.1685 4.0469 0.0000 -0.7815 4.0313 0.0000 1.2963 -4.0469 0.0000 1.2963 -2.0263 0.0000 0.0000 0.0000 0.0000 0.0000 -13.6853 -63.7037 -74.1507 0.0000 0.0000 0.0000 0.0000 0.0000 0.0000 0.0000 0.0000 0.0000 12.0361 63.7037 74.1507 0.0000 0.0000 0.0000 0.0000 0.0000 -17.1708 -66.5300 18.6168 0.0000 100.2681 0.0000 -11.0055 -34.7142 2.3702 0.0000 -2.5892 0.0000 -1.8192 -32.6377 3.3704 0.0000 52.1375 0.0000 0.3455 -24.2493 -0.0390 0.0000 -0.0000 0.0000
